<?xml version="1.0" standalone="no"?>
<!DOCTYPE svg PUBLIC "-//W3C//DTD SVG 20010904//EN"
 "http://www.w3.org/TR/2001/REC-SVG-20010904/DTD/svg10.dtd">
<svg version="1.0" xmlns="http://www.w3.org/2000/svg"
 width="1638.000000pt" height="1638.000000pt" viewBox="0 0 1638.000000 1638.000000"
 preserveAspectRatio="xMidYMid meet">
<metadata>
Created by potrace 1.11, written by Peter Selinger 2001-2013
</metadata>
<g transform="translate(0.000000,1638.000000) scale(0.100000,-0.100000)"
fill="#000000" stroke="none">
<path d="M11077 10334 c-1 -1 -74 -4 -162 -8 -88 -3 -171 -8 -185 -10 -14 -3
-49 -7 -78 -10 -29 -3 -63 -8 -75 -11 -12 -2 -39 -7 -60 -10 -58 -8 -205 -41
-272 -61 -33 -10 -64 -19 -70 -20 -5 -1 -49 -18 -96 -37 -274 -111 -454 -268
-515 -447 -41 -123 -13 -294 69 -423 20 -32 37 -62 37 -67 0 -6 4 -10 8 -10 5
0 20 -16 34 -35 56 -80 176 -191 300 -280 45 -32 296 -185 304 -185 3 0 20
-10 37 -22 18 -13 33 -22 35 -20 2 2 79 -34 262 -121 36 -17 67 -32 70 -32 7
-2 116 -58 170 -87 25 -14 68 -38 95 -53 28 -15 57 -34 66 -41 8 -8 18 -14 22
-14 6 0 87 -53 114 -75 7 -5 37 -28 68 -50 107 -77 335 -318 335 -354 0 -6 5
-11 10 -11 6 0 10 -7 10 -15 0 -8 4 -15 8 -15 5 0 27 -39 50 -87 90 -189 106
-364 52 -538 -33 -104 -87 -203 -155 -284 -89 -108 -303 -284 -400 -331 -16
-8 -38 -21 -49 -30 -10 -8 -20 -14 -22 -13 -2 1 -36 -13 -76 -31 -154 -71
-344 -125 -565 -160 -167 -27 -509 -28 -629 -2 -12 2 -39 7 -59 10 -21 4 -75
16 -119 27 -45 12 -88 22 -96 24 -75 16 -293 113 -362 162 -26 18 -50 33 -53
33 -2 0 -28 25 -57 55 -161 166 -208 378 -130 595 9 25 22 55 30 68 8 12 10
22 6 22 -5 0 -4 4 2 8 6 4 18 21 27 39 21 40 122 166 179 220 262 256 698 428
1083 427 61 -1 205 -10 238 -17 7 -1 13 15 15 39 10 140 -208 339 -499 454
-65 26 -163 57 -204 64 -16 3 -57 11 -90 17 -68 13 -237 16 -335 6 -55 -5
-115 -15 -246 -41 -61 -12 -245 -82 -304 -115 -57 -32 -102 -52 -107 -47 -15
15 90 79 282 172 77 37 142 68 145 69 3 1 21 9 40 18 39 19 43 18 -55 2 -49
-7 -217 -52 -250 -66 -16 -6 -35 -13 -42 -15 -41 -8 -245 -117 -343 -182 -102
-67 -280 -228 -340 -307 -31 -41 -110 -163 -110 -171 0 -4 -6 -15 -13 -23 -37
-45 -102 -247 -113 -352 -10 -96 -4 -244 11 -269 2 -4 7 -21 10 -39 12 -67 99
-253 139 -298 6 -6 22 -26 35 -45 47 -63 206 -215 281 -268 19 -13 41 -30 48
-37 7 -7 17 -13 22 -13 5 0 15 -6 22 -12 60 -56 439 -228 578 -263 3 -1 12 -5
20 -8 49 -21 378 -108 460 -122 19 -3 51 -10 70 -15 19 -5 51 -11 70 -14 19
-3 46 -8 60 -10 14 -3 43 -7 65 -10 45 -5 115 -15 160 -21 83 -13 243 -19 455
-20 308 0 458 11 690 51 76 13 86 15 103 20 10 3 30 7 45 9 120 15 480 131
642 207 89 41 141 69 294 155 11 7 32 20 46 30 139 102 198 150 271 223 83 82
218 250 202 250 -4 0 -3 4 3 8 29 20 124 244 139 328 4 21 9 50 12 64 19 98 4
268 -33 390 -15 52 -79 192 -106 235 -49 76 -73 111 -78 115 -4 3 -11 12 -16
22 -21 38 -172 197 -254 268 -14 12 -38 34 -55 48 -72 65 -294 222 -314 222
-5 0 -11 4 -13 8 -1 5 -23 20 -48 34 -25 14 -63 35 -85 48 -119 67 -337 171
-500 237 -225 91 -335 154 -419 239 -56 56 -99 142 -99 195 0 44 22 119 35
119 4 0 8 5 8 12 0 19 86 93 143 123 126 66 278 93 490 89 132 -2 194 -7 257
-19 14 -3 41 -7 60 -9 102 -14 275 -59 388 -102 37 -14 72 -27 77 -28 6 -1 31
-12 56 -23 26 -12 63 -27 82 -34 l35 -12 -33 -66 c-48 -96 -70 -169 -80 -265
-3 -32 15 -114 35 -162 11 -24 18 -45 17 -47 -2 -2 29 -48 58 -86 19 -25 115
-122 115 -116 0 3 10 -4 23 -15 65 -62 303 -151 445 -166 44 -5 181 -8 192 -4
3 1 21 3 40 6 19 2 49 8 65 13 l30 9 -30 2 c-16 1 -39 3 -50 5 -11 2 -40 7
-65 10 -25 3 -76 15 -115 27 -230 67 -356 200 -343 360 4 56 45 155 74 179 15
12 16 11 8 -21 -5 -19 -8 -68 -8 -108 1 -58 6 -83 29 -128 55 -109 188 -190
340 -208 41 -5 47 -4 34 6 -60 48 -99 149 -84 217 8 39 25 41 25 3 0 -16 8
-44 17 -63 l18 -34 6 55 c10 79 23 106 82 164 45 44 142 105 180 112 7 2 25 6
41 9 16 3 33 8 37 10 26 17 202 25 262 13 47 -10 109 -21 123 -21 10 0 89 51
127 83 10 8 28 23 40 33 62 52 164 160 210 222 28 38 54 72 57 75 3 3 17 30
31 60 77 161 48 300 -75 359 -180 87 -562 121 -866 76 -117 -17 -356 -78 -374
-96 -6 -5 -16 -9 -23 -9 -8 0 -45 -16 -83 -34 l-70 -35 -57 19 c-183 60 -695
194 -721 188 -4 0 -14 1 -22 5 -8 3 -53 12 -100 21 -118 22 -181 32 -260 41
-30 3 -73 9 -95 12 -102 13 -220 22 -390 29 -205 8 -246 9 -248 8z"/>
<path d="M7590 10302 c0 -12 -5 -44 -11 -73 -12 -55 -35 -84 -151 -187 -31
-28 -54 -53 -51 -56 4 -3 1 -6 -5 -6 -6 0 -24 -12 -40 -27 -16 -16 -89 -84
-162 -153 -73 -69 -158 -150 -190 -180 -68 -67 -384 -369 -460 -441 -30 -28
-129 -122 -219 -208 -232 -221 -226 -215 -350 -331 -62 -58 -117 -106 -122
-108 -5 -2 -9 -10 -9 -18 0 -8 -4 -13 -8 -12 -7 3 -53 -37 -154 -133 -26 -25
-48 -44 -48 -42 0 2 -11 -6 -24 -19 -60 -59 -235 -215 -300 -269 -17 -13 -47
-41 -68 -61 -21 -20 -38 -34 -38 -31 0 3 -17 -10 -38 -28 -21 -19 -57 -50 -81
-69 -23 -19 -48 -40 -54 -45 -35 -31 -155 -123 -173 -133 -17 -9 -49 -5 -160
24 -77 19 -146 36 -154 38 -8 2 -24 7 -34 11 -10 5 -28 9 -40 10 -12 1 -28 5
-36 8 -8 3 -51 16 -95 27 -44 12 -101 28 -126 37 -25 8 -55 16 -65 18 -10 2
-20 4 -21 5 -2 2 -6 3 -10 4 -5 2 -34 10 -67 20 -32 10 -64 19 -70 20 -32 7
-74 19 -96 27 -14 5 -38 11 -55 14 -16 2 -45 9 -63 14 -18 5 -35 10 -37 10 -3
1 -6 1 -7 2 -2 0 -14 3 -28 5 -14 3 -68 13 -120 24 -52 10 -115 22 -140 25
-25 3 -61 8 -80 11 -19 2 -48 6 -65 8 -101 14 -226 20 -415 20 -301 0 -459
-14 -695 -65 -192 -41 -416 -122 -555 -200 -8 -5 -33 -18 -55 -30 -22 -12 -42
-25 -45 -29 -3 -4 -19 -14 -37 -23 -17 -9 -37 -22 -45 -29 -7 -7 -40 -35 -73
-63 -60 -50 -126 -118 -167 -171 -12 -16 -25 -31 -29 -34 -4 -3 -15 -21 -25
-40 -11 -19 -27 -46 -36 -60 -9 -14 -29 -61 -43 -105 -33 -97 -40 -207 -19
-295 21 -90 85 -207 152 -277 61 -64 133 -123 150 -123 6 0 12 -4 14 -8 5 -15
189 -99 273 -125 114 -35 158 -48 175 -51 8 -1 24 -5 35 -9 18 -5 50 -11 120
-22 11 -2 36 -6 55 -10 19 -4 46 -8 60 -10 14 -1 57 -6 95 -11 64 -8 425 -11
485 -5 14 2 75 10 135 18 61 9 116 16 123 16 6 0 12 4 12 9 0 5 4 7 10 3 11
-7 175 34 310 77 206 65 488 189 719 315 63 35 118 63 122 63 4 0 9 4 11 8 2
5 15 15 30 23 66 35 156 91 316 198 251 168 227 156 270 142 46 -14 212 -61
232 -66 15 -3 206 -54 225 -59 6 -2 24 -6 40 -10 17 -4 48 -12 70 -17 22 -6
49 -12 60 -14 11 -2 20 -4 20 -5 0 -1 8 -3 19 -5 10 -2 39 -9 65 -15 68 -16
76 -18 201 -45 63 -14 124 -27 135 -29 23 -4 23 -4 -1 -106 -11 -49 -17 -116
-17 -195 -1 -109 2 -129 31 -213 18 -51 48 -118 68 -150 34 -54 157 -182 175
-182 4 0 14 -6 21 -13 15 -14 144 -77 159 -77 5 0 17 -4 27 -9 20 -11 119 -36
177 -46 l40 -6 -45 30 c-68 46 -159 149 -191 217 -16 34 -29 64 -29 67 0 19
18 1 44 -43 16 -27 34 -46 39 -43 6 3 7 2 4 -4 -6 -10 53 -71 113 -115 82 -60
206 -113 329 -142 74 -17 74 -17 -5 25 -32 17 -61 35 -64 40 -3 4 -11 9 -19
11 -7 2 -40 27 -72 57 -104 95 -180 210 -184 277 -4 45 6 42 29 -9 11 -23 22
-44 25 -47 4 -3 18 -21 33 -41 142 -191 362 -299 608 -301 170 -1 325 54 368
130 17 31 15 38 -7 18 -36 -33 -132 -55 -219 -51 -180 7 -322 132 -383 335
-22 74 -30 220 -17 295 4 17 12 62 19 100 7 39 12 73 11 78 -1 4 6 8 16 8 9 1
31 3 47 4 92 6 183 18 270 35 28 6 59 12 70 14 53 10 225 72 279 100 102 54
145 84 215 154 65 65 123 162 135 222 2 14 7 37 11 52 l7 27 -54 -29 c-51 -28
-173 -62 -263 -75 -22 -3 -49 -7 -60 -10 -97 -20 -439 -25 -457 -7 -6 6 11 50
48 123 32 63 59 116 59 119 0 3 9 19 21 35 11 17 28 44 36 60 12 24 87 152
153 263 88 147 121 200 133 215 8 9 11 17 6 17 -5 0 -4 4 2 8 6 4 41 57 78
117 37 61 94 153 127 205 33 52 63 103 66 113 3 9 9 17 14 17 5 0 9 6 9 14 0
8 4 16 8 18 9 4 72 105 72 116 0 4 14 23 30 42 16 19 30 38 30 42 0 3 31 55
70 115 38 59 84 133 102 163 17 30 34 57 38 60 13 11 40 60 33 60 -5 0 -3 4 3
8 9 6 26 32 101 157 108 180 213 372 213 391 0 8 5 14 10 14 6 0 10 6 10 13 0
6 7 25 15 41 22 42 64 183 60 203 -2 10 -4 26 -4 35 -1 16 -50 58 -74 62 -7 1
-28 9 -47 18 -51 22 -215 74 -290 93 -36 9 -101 25 -145 36 -91 22 -314 65
-392 75 -49 6 -53 5 -53 -14z m-430 -926 c0 -2 -25 -48 -56 -102 -31 -55 -72
-128 -91 -164 -34 -62 -52 -95 -104 -185 -12 -22 -37 -67 -54 -100 -18 -33
-73 -132 -122 -220 -49 -88 -104 -186 -122 -219 -18 -32 -45 -79 -60 -105 -14
-25 -33 -59 -41 -76 -8 -16 -17 -32 -20 -35 -3 -3 -14 -23 -26 -45 -23 -44
-28 -52 -192 -345 -91 -162 -217 -377 -226 -386 0 -1 -55 9 -121 22 -66 13
-135 26 -154 29 -18 3 -37 7 -41 10 -5 3 -21 7 -37 9 -31 4 -177 34 -349 72
-61 13 -115 24 -120 24 -4 0 2 9 14 20 12 11 24 20 28 20 4 0 12 6 18 13 6 8
51 47 100 88 50 41 102 85 116 99 15 14 64 59 109 100 92 83 140 128 350 328
199 190 271 260 632 616 444 438 569 555 569 532z m-4250 -1730 c19 -3 35 -5
35 -7 0 -1 9 -3 20 -4 45 -6 101 -16 188 -36 51 -11 100 -22 110 -24 30 -7
184 -54 296 -92 58 -20 111 -37 116 -38 6 -1 17 -5 25 -8 8 -3 67 -22 130 -42
63 -20 137 -43 163 -52 26 -8 53 -16 60 -17 7 -2 19 -6 27 -9 8 -4 24 -8 35
-10 11 -1 25 -5 30 -9 6 -3 36 -13 68 -22 31 -9 57 -19 57 -21 0 -3 -34 -27
-74 -54 -41 -27 -72 -52 -68 -56 4 -4 3 -5 -3 -4 -9 3 -103 -47 -115 -61 -7
-9 -278 -170 -286 -170 -3 0 -18 -8 -32 -19 -26 -18 -262 -145 -272 -146 -3 0
-35 -15 -71 -33 -37 -18 -72 -32 -78 -32 -6 0 -11 -4 -11 -10 0 -5 -3 -9 -7
-8 -9 1 -30 -6 -81 -29 -194 -86 -475 -164 -687 -190 -103 -13 -343 -8 -441
10 -114 21 -276 75 -360 122 -80 43 -84 47 -154 116 -136 136 -161 316 -68
492 35 65 147 185 218 232 25 16 47 32 50 36 3 3 20 11 38 18 17 8 32 17 32
22 0 5 3 8 8 7 4 -1 30 8 57 21 54 24 216 81 250 87 11 2 34 6 50 9 17 3 44 8
60 11 17 3 36 7 43 9 7 3 47 7 90 11 42 4 79 8 80 10 5 4 428 -5 472 -10z"/>
<path d="M1470 6841 c0 -15 23 -64 37 -79 7 -7 18 -21 25 -30 13 -17 97 -87
133 -110 93 -59 298 -137 391 -147 56 -7 60 -6 61 14 2 21 -10 26 -49 22 -20
-2 -22 3 -9 28 14 25 -2 45 -29 36 -16 -5 -19 -10 -11 -18 21 -21 11 -28 -26
-21 -21 4 -54 8 -73 9 -67 4 -69 5 -64 19 7 19 -40 43 -91 47 -47 3 -98 26
-90 40 11 16 -60 79 -84 74 -22 -4 -29 9 -10 21 8 5 5 12 -9 23 -11 9 -38 31
-61 49 -23 19 -41 29 -41 23z"/>
<path d="M2093 6553 c-7 -3 -13 -9 -13 -14 0 -12 37 -12 44 0 7 11 -14 20 -31
14z"/>
<path d="M10247 7944 c-9 -9 2 -24 17 -24 7 0 21 7 32 15 18 14 17 14 -12 15
-17 0 -34 -3 -37 -6z"/>
<path d="M10332 7938 c-23 -23 -14 -48 17 -48 38 0 48 16 25 41 -20 22 -26 23
-42 7z"/>
<path d="M10470 7947 c0 -16 76 -114 97 -125 29 -16 114 -12 136 7 44 36 -60
107 -171 117 -34 3 -62 4 -62 1z"/>
<path d="M5714 6290 c10 -68 17 -94 42 -146 44 -94 147 -173 279 -213 77 -24
95 -15 21 10 -136 46 -264 176 -325 329 -18 46 -21 49 -17 20z"/>
</g>
</svg>
